<svg width="25" height="23" viewBox="0 0 25 23" fill="none" xmlns="http://www.w3.org/2000/svg">
<path d="M14.7094 10.0714C15.9299 11.2919 15.9299 13.2706 14.7094 14.491C13.489 15.7114 11.5103 15.7114 10.2899 14.491C9.06947 13.2706 9.06947 11.2919 10.2899 10.0714C11.5103 8.85102 13.489 8.85102 14.7094 10.0714Z" fill="black"/>
<path d="M21.8749 3.68724H19.7157L18.1524 0.562134H6.84608L5.28426 3.68878L3.12813 3.69262C1.40919 3.69569 0.00987809 5.09648 0.00839381 6.81619L0 19.312C0 21.0355 1.40156 22.4378 3.12511 22.4378H21.8749C23.5985 22.4378 25.0001 21.0363 25.0001 19.3127V6.8123C25 5.0888 23.5984 3.68724 21.8749 3.68724ZM12.4996 18.5314C9.05329 18.5314 6.2494 15.7276 6.2494 12.2812C6.2494 8.8349 9.05329 6.03101 12.4996 6.03101C15.9459 6.03101 18.7498 8.8349 18.7498 12.2812C18.7498 15.7276 15.9459 18.5314 12.4996 18.5314Z" fill="black"/>
</svg>
